Intolerable.Cruelty.2003.720p.BRRip.x264.aac.mp4.anoXmous

Format                           : MPEG-4
Format profile                   : Base Media
Codec ID                         : isom
File size                        : 700 MiB
Duration                         : 1h 39mn
Overall bit rate mode            : Variable
Overall bit rate                 : 983 Kbps

Video
ID                               : 1
Format                           : AVC
Format/Info                      : Advanced Video Codec
Format profile                   : High@L4.1
Format settings, CABAC           : Yes
Format settings, ReFrames        : 4 frames
Codec ID                         : avc1
Codec ID/Info                    : Advanced Video Coding
Duration                         : 1h 39mn
Bit rate                         : 911 Kbps
Maximum bit rate                 : 6 065 Kbps
Width                            : 1 280 pixels
Height                           : 688 pixels
Display aspect ratio             : 1.850
Frame rate mode                  : Constant
Frame rate                       : 23.976 fps
Color space                      : YUV
Chroma subsampling               : 4:2:0
Bit depth                        : 8 bits
Scan type                        : Progressive
Bits/(Pixel*Frame)               : 0.043
Stream size                      : 649 MiB (93%)
Writing library                  : x264 core 119 r2106 07efeb4

Audio
ID                               : 2
Format                           : AAC
Format/Info                      : Advanced Audio Codec
Format profile                   : LC
Codec ID                         : 40
Duration                         : 1h 39mn
Bit rate mode                    : Variable
Bit rate                         : 68.9 Kbps
Maximum bit rate                 : 100 Kbps
Channel(s)                       : 2 channels
Channel positions                : Front: L R
Sampling rate                    : 48.0 KHz 
Compression mode                 : Lossy
Stream size                      : 49.1 MiB (7%)
Language                         : English

                               SUB:
Intolerable.Cruelty.2003.720p.BRRip.x264.aac.mp4.anoXmous_swe.srt
 
http://www.imdb.com/title/tt0138524/

+++++++This 1 should work very fine with PSP and XBOX :)+++++++++	